<svg width="39" height="48" fill="none" xmlns="http://www.w3.org/2000/svg"><path fill-rule="evenodd" clip-rule="evenodd" d="M24.8 0H4a4 4 0 0 0-4 4v40a4 4 0 0 0 4 4h20v-1.5c0-3.6 1-7 3-10 .3-.4.2-.8 0-1l-5.6-5.7a2.6 2.6 0 0 1 .2-3.8c1-.9 2.6-.7 3.5.3l8 7.8 1-1-5.3-5.4V4a4 4 0 0 0-4-4Zm2.4 26-1-.9a4.3 4.3 0 0 0-5.7-.4 4.2 4.2 0 0 0-.3 6.2l5.2 5.2c-2 3-3 6.6-3 10.3H4c-1.3 0-2.4-1.1-2.4-2.4v-2.4h20V40h-20V6.4h25.6v19.7ZM1.6 4.9h25.6V4c0-1.3-1-2.4-2.4-2.4H4c-1.3 0-2.4 1-2.4 2.4v.8Zm29.6 13.8L30 19.8l4.9 4.5c1.1 1 1.8 2.5 1.8 4.1V48h1.6V28.4c0-2-.9-4-2.3-5.3l-5-4.5ZM4.8 14.4H8c.9 0 1.6-.7 1.6-1.6V9.6C9.6 8.7 9 8 8 8H4.8c-.9 0-1.6.7-1.6 1.6v3.2c0 .9.7 1.6 1.6 1.6Zm0-4.8H8v3.2H4.8V9.6ZM16 14.4h-3.2c-.9 0-1.6-.7-1.6-1.6V9.6c0-.9.7-1.6 1.6-1.6H16c.9 0 1.6.7 1.6 1.6v3.2c0 .9-.7 1.6-1.6 1.6Zm0-4.8h-3.2v3.2H16V9.6Zm4.8 4.8H24c.9 0 1.6-.7 1.6-1.6V9.6c0-.9-.7-1.6-1.6-1.6h-3.2c-.9 0-1.6.7-1.6 1.6v3.2c0 .9.7 1.6 1.6 1.6Zm0-4.8H24v3.2h-3.2V9.6ZM8 22.4H4.8c-.9 0-1.6-.7-1.6-1.6v-3.2c0-.9.7-1.6 1.6-1.6H8c.9 0 1.6.7 1.6 1.6v3.2c0 .9-.7 1.6-1.6 1.6Zm0-4.8H4.8v3.2H8v-3.2ZM4.8 30.4H8c.9 0 1.6-.7 1.6-1.6v-3.2C9.6 24.7 9 24 8 24H4.8c-.9 0-1.6.7-1.6 1.6v3.2c0 .9.7 1.6 1.6 1.6Zm0-4.8H8v3.2H4.8v-3.2ZM16 22.4h-3.2c-.9 0-1.6-.7-1.6-1.6v-3.2c0-.9.7-1.6 1.6-1.6H16c.9 0 1.6.7 1.6 1.6v3.2c0 .9-.7 1.6-1.6 1.6Zm0-4.8h-3.2v3.2H16v-3.2Zm4.8 4.8H24c.9 0 1.6-.7 1.6-1.6v-3.2c0-.9-.7-1.6-1.6-1.6h-3.2c-.9 0-1.6.7-1.6 1.6v3.2c0 .9.7 1.6 1.6 1.6Zm0-4.8H24v3.2h-3.2v-3.2ZM16 30.4h-3.2c-.9 0-1.6-.7-1.6-1.6v-3.2c0-.9.7-1.6 1.6-1.6H16c.9 0 1.6.7 1.6 1.6v3.2c0 .9-.7 1.6-1.6 1.6Zm0-4.8h-3.2v3.2H16v-3.2ZM4.8 38.4H8c.9 0 1.6-.7 1.6-1.6v-3.2C9.6 32.7 9 32 8 32H4.8c-.9 0-1.6.7-1.6 1.6v3.2c0 .9.7 1.6 1.6 1.6Zm0-4.8H8v3.2H4.8v-3.2ZM16 38.4h-3.2c-.9 0-1.6-.7-1.6-1.6v-3.2c0-.9.7-1.6 1.6-1.6H16c.9 0 1.6.7 1.6 1.6v3.2c0 .9-.7 1.6-1.6 1.6Zm0-4.8h-3.2v3.2H16v-3.2Zm-.8 9.6h-1.6v1.6h1.6v-1.6Z" fill="#495567"/></svg>