<svg width="40" height="40" fill="none" xmlns="http://www.w3.org/2000/svg"><path fill-rule="evenodd" clip-rule="evenodd" d="M36.2 18H38c.4 0 .7-.3.7-.7V12c0-.4-.3-.7-.7-.7h-6.3l-1-2.1V6.7c0-.4-.3-.7-.7-.7h-4c-.4 0-.7.3-.7.7v2.6c0 .4.3.7.7.7h3.6l1 2.2V16a2 2 0 0 0-4 0v-1.3c0-.4-.2-.7-.6-.7h-5.3l-2-.5V2.7C18.7 1.2 17.5 0 16 0h-2.7a2.7 2.7 0 0 0-2.6 2.7V10H7.3a2 2 0 0 0-2 2v2H.7a.7.7 0 0 0-.5 1.1l1.5 1.6-1.5 1.5a.7.7 0 0 0 .5 1.1h6.6a2 2 0 0 0 2-2v-2h1.4V22h-2A4.7 4.7 0 0 0 4 26H2c-.4 0-.7.3-.7.7v2.6c0 .4.3.7.7.7h2v1.3H.7c-.4 0-.7.3-.7.7v2.7c0 .3.3.6.7.6H8a4.7 4.7 0 1 0 9.3 0h12a4.7 4.7 0 1 0 9.4 0h.6a.7.7 0 0 0 .7-.8L36.2 18Zm-9.5-2a2 2 0 1 0 4 0v14h-2v-.7a2 2 0 0 0-2-2V20c0-.4-.3-.7-.7-.7h-7.3v-1.8l1.8.5H26c.4 0 .7-.3.7-.7V16Zm2.6-7.3h-2.6V7.3h2.6v1.4ZM4 34v-1.3H1.3V34H4Zm0-5.3H2.7v-1.4H4v1.4Zm33.3-16H36v4h1.3v-4Zm-5.3 0h2.7v4H32v-4Zm-4.7 16.6c0-.3-.3-.6-.6-.6H24V30h3.3v-.7Zm-6.8-14h4.8v1.4h-4.6L16 15.5v-1.3l4.5 1.1Zm-7.2-14c-.7 0-1.3.6-1.3 1.4v2.6h2V4c0-.4.3-.7.7-.7h2.6v-.6c0-.8-.6-1.4-1.3-1.4h-2.7ZM12 6.7h2.7c.3 0 .6-.3.6-.7V4.7h2v1.5L12 7.8V6.7Zm5.3 4V7.6L12 9.2v1.5h5.3Zm0 1.3v1.1l-1.8-.4a.7.7 0 0 0-.8.6V16c0 .3.2.6.5.6l2.1.6v2.1H12V12h5.3Zm8 15.3v-6.6H12V22h11.3c.4 0 .7.3.7.7v4.6h1.3ZM8 17.3c0 .4-.3.7-.7.7h-5l.8-.9c.3-.2.3-.6 0-.9l-.8-.9H8v2ZM6.7 12v2h4v-2.7H7.3c-.3 0-.6.3-.6.7Zm6 26.7a3.3 3.3 0 0 1-3.4-3.4h1.4a2 2 0 1 0 4 0H16c0 1.9-1.5 3.4-3.3 3.4Zm0-2.7c.3 0 .6-.3.6-.7H12c0 .4.3.7.7.7Zm4.6-2H8v-6.7c0-.3.3-.6.7-.6h8c.3 0 .6.3.6.6V34Zm1.4 0H20v-7.3c0-1.9-1.5-3.4-3.3-3.4h-8a3.3 3.3 0 0 0-3.4 3.4V34h1.4v-6.7c0-1 .9-2 2-2h8a2 2 0 0 1 2 2V34Zm1.2-10.7h2.8V30h-1.4v-3.3c0-1.3-.5-2.5-1.4-3.4ZM34 38.7a3.3 3.3 0 0 1-3.3-3.4H32a2 2 0 1 0 4 0h1.3c0 1.9-1.5 3.4-3.3 3.4Zm0-2.7c.4 0 .7-.3.7-.7h-1.4c0 .4.3.7.7.7Zm-2-2v-4.7h1.3V28H32V18h2.8l3.7 16H32Zm-10.7 0h9.4v-2.7h-9.4V34ZM36 28h-1.3v1.3H36V28ZM9.3 28h1.4v1.3H9.3V28Zm4 0H12v1.3h1.3V28Zm1.4 0H16v1.3h-1.3V28Zm14-12.7a.7.7 0 1 1 0 1.4.7.7 0 0 1 0-1.4ZM0 4.7h8.7V6H0V4.7Zm9.3 2.6h-8v1.4h8V7.3Z" fill="#495567"/></svg>