<svg width="43" height="32" fill="none" xmlns="http://www.w3.org/2000/svg"><path fill-rule="evenodd" clip-rule="evenodd" d="m34.5 16.4-1.9-8.7c.5 0 1-.3 1.3-.7.4.2.8.4 1.3.4H37c.4 0 .8-.4.8-.9V3.2c0-.4-.4-.8-.8-.8h-1.7c-.5 0-1 .2-1.3.4a2 2 0 0 0-1.6-.7h-4.8a2 2 0 0 0-2 1.3h-2a2.2 2.2 0 0 0 0 4.3h4.3v1.7a.8.8 0 1 0 1.7 0V7.7h1.4l2.1 9.4-4 7c-.4.8-1.2 1.2-2 1.2h-9.8A7 7 0 0 0 6 20.7a7 7 0 0 0-2.6 4.6H1.7c0-5.9 5-10.7 10.9-10.7h5.9c.4 0 .8.4.8.8V23c0 .4.4.8.8.8h4.4a5 5 0 0 0 5-5V16c0-.4-.4-.8-.9-.8-.4 0-.8.4-.8.8v2.8a3.3 3.3 0 0 1-3.3 3.2H21v-6.6c0-.4-.1-.8-.3-1.1a2.5 2.5 0 0 0-1.3-4.7h-3c-.3 0-.6 0-.8.2V2.5C15.6 1.2 14.5 0 13 0H7.8A7.8 7.8 0 0 0 0 6.8l-.1 1v4.3c0 1.3 1 2.3 2.1 2.5L4 16.4C1.5 18.7 0 21.9 0 25.5v.7c0 .4.4.8.8.8h4.7v.2c0 1.2.4 2.3 1.1 3.1H.8a.8.8 0 0 0 0 1.7h9.4a4.8 4.8 0 0 0 4.8-5h12a4 4 0 0 0 3.2-1.7h1a4.8 4.8 0 0 0 .9 5H21.4a.8.8 0 0 0 0 1.7H35.7a4.8 4.8 0 0 0 4.5-6.7h1.3c.5 0 .8-.3.8-.8 0-4.4-3.4-8-7.8-8Zm-18-5.1h3a.8.8 0 0 1 0 1.6h-3a.8.8 0 0 1 0-1.6ZM1.6 7.7V12.1c0 .5.3.8.8.8H13c.5 0 .8-.3.8-.8V2.5c0-.4-.3-.8-.8-.8H7.8C5 1.7 2.7 3.5 1.9 6h8.8a.8.8 0 1 1 0 1.7h-9Zm2.8 6.9h1.9l-1.2.7-.7-.7Zm5.8 15.7c1.7 0 3.1-1.4 3.1-3.1V27H7.1v.2c0 1.7 1.4 3 3 3.1h.2Zm-5.3-5c.2-1.3 1-2.5 2-3.3 1-.7 2-1.1 3.3-1.1 2.6 0 4.8 2 5.2 4.4H5ZM36 4.1h-.8a.8.8 0 0 0 0 1.6h.9V4.1ZM23 5.6c0-.3.3-.5.6-.5h1.8v1h-1.8a.5.5 0 0 1-.5-.5Zm4.5.5H32.3c.3 0 .4-.2.4-.4V4.2c0-.3-.1-.4-.4-.4h-4.8c-.3 0-.5.1-.5.4v1.5c0 .2.2.4.5.4Zm11.4 21c0 1.8-1.4 3.2-3.1 3.2h-.2a3.1 3.1 0 0 1-2.4-5h5c.5.6.7 1.2.7 1.9Zm-4.5-9-3.2 5.6h9.4c-.4-3.1-3-5.6-6.2-5.6Z" fill="#495567"/></svg>